<?xml version="1.0" encoding="UTF-8" standalone="no"?>
<!DOCTYPE svg PUBLIC "-//W3C//DTD SVG 1.1//EN" "http://www.w3.org/Graphics/SVG/1.1/DTD/svg11.dtd">
<svg width="100%" height="100%" viewBox="0 0 1024 1024" version="1.1" xmlns="http://www.w3.org/2000/svg" xmlns:xlink="http://www.w3.org/1999/xlink" xml:space="preserve" xmlns:serif="http://www.serif.com/" style="fill-rule:evenodd;clip-rule:evenodd;stroke-linecap:round;stroke-linejoin:round;stroke-miterlimit:1.5;">
    <path d="M45,520C44.86,515.803 41.278,515.559 38.085,512.501C33.734,508.334 29.25,501.513 27.269,496.096C23.833,486.699 19.037,471.923 24.382,463.618C26.57,460.219 38.505,456.243 47.566,461.928C50.351,463.675 55.526,467.913 54.213,475.204C53.565,478.804 47.979,478.017 46.676,480.171C44.279,484.133 49.915,493.803 56.975,499.485C63.426,504.678 74,491 74,491C74,491 117.046,442.351 167.864,386.073C218.555,329.936 276.985,266.207 304.161,235.597C336.88,198.743 380.465,145.532 400.52,123.216C426.346,94.477 482,37 482,37C482,37 499.022,19.071 511.463,18.393C526.881,17.552 532.738,17.175 537.405,27.361C538.049,28.767 538.802,41.438 524.042,48.293C520.647,49.87 513.825,46.552 508.761,46.837C503.467,47.136 498.472,50.916 496,53C481.92,64.871 463.437,80.46 424.279,118.065C399.233,142.118 373.716,171.277 354.093,192.393C316.081,233.298 224.032,342.917 184.85,387.685C163.031,412.614 125.328,452.193 111,468C96.25,484.272 87.804,502.387 86.88,518.527C84.88,553.465 100.889,561.701 112,574C135.058,599.523 183.231,661.58 241.875,721.614C339.272,821.321 405.841,883.312 449,923C462.964,935.841 476.907,945.685 500.831,959.744C517.975,969.819 537.614,973.113 544.22,982.2C548.552,988.158 547.052,996.302 544.895,999.173C540.378,1005.183 531.021,1002.842 524.295,1000.066C494.446,987.743 434,932 434,932C434,932 373.22,872.958 302.071,799.983C243.858,740.275 179.034,670.579 132.117,621.793C110.004,598.799 93.046,575.231 82,564C74.321,556.193 64.528,543.873 55.26,546.915C41.934,551.289 55.607,577.872 45.649,582.317C35.973,586.636 30.648,578.751 29.922,575.822C25.668,558.653 27.9,540.522 34.63,532.081C39.009,526.59 45.174,525.237 45,520Z" style="stroke:black;stroke-width:1px;"/>
    <path d="M674,842C674,842 578.078,853.076 490.908,847.473C428.63,843.47 372.477,825.886 363.21,813.669C344.849,789.466 334.222,735.07 323.906,686.637C313.82,639.284 303.26,586.795 299.022,539.179C295.52,499.823 296.604,457.43 295.595,425.391C293.701,365.268 292,329 292,329C292,329 289.313,297.668 294.313,289.168C297.875,283.112 319.149,279.413 329,278C364.022,272.977 444.63,262.354 504.445,259.031C567.445,255.531 661.571,253.472 700,257C715.378,258.412 731.906,259.153 735.859,266.73C743.859,282.063 743.182,324.617 747,344C749.299,355.672 745.511,379.685 758.766,383.028C773.395,386.717 811.67,379.774 850.291,382.573C891.22,385.539 941.965,391.596 955,394C973.252,397.366 1015.76,409.995 988.502,444.998C980.688,455.031 971.792,452.916 966.249,448.254C955.06,438.843 971.431,423.139 956,415C919.882,395.95 780.579,393.615 768,397C743.963,403.467 750.112,447.996 747.068,494.343C743.855,543.272 740.135,571.234 737,594C735.23,606.856 735.505,623.958 728.257,630.938C719.257,639.604 698.028,640.13 683,645C628.457,662.677 467,677 467,677C467,677 444.932,677.312 443.187,673.225C435.853,656.059 447,610 447,610C447,610 478.121,471.103 486,440C487.52,434.001 489.849,426.92 494.274,423.381C499.274,419.381 515.518,416.589 523,415C549.026,409.472 644.467,395.716 692.375,389.652C700.34,388.643 712.712,385.021 719.423,383.768C736.726,380.538 731,349 731,349C731,349 735.365,315.231 718.235,293.297C702.203,272.769 679.766,273.427 660,272C594.201,267.251 388.721,266.731 333.441,304.803C305.657,323.939 311.68,366.157 312,427C312.829,584.551 341.61,672.293 353,734C357.169,756.586 367.562,784.163 380.343,797.245C394.509,811.745 417.97,817.445 438,823C477.881,834.06 606.342,846.765 665.044,827.892C686.214,821.086 703.067,808.015 715.474,808.661C729.442,809.389 729.382,823.095 714.097,830.915C697.53,839.391 674,842 674,842ZM500,451C490.692,465.524 481.807,522.759 472.727,567.377C464.605,607.279 449.2,641.157 470,653C501.965,671.2 545.864,655.775 598.417,646.023C643.856,637.591 686.618,629.636 699.305,611.828C718.199,585.309 720.785,549.071 724.994,507.483C728.795,469.933 730.583,432.545 718.627,418.725C694.269,390.572 661.47,407.944 616.51,414.569C565.687,422.058 513.569,429.827 500,451Z" style="stroke:black;stroke-width:1px;"/>
</svg>
